<svg width="64" height="64" viewBox="0 0 64 64" fill="none" xmlns="http://www.w3.org/2000/svg">
  <path
    d="M41.4405 0C49.0814 0 52.902 0.000325323 55.8507 1.41626C58.7951 2.83012 61.1699 5.20491 62.5837 8.14927C63.9997 11.098 64 14.9186 64 22.5595V41.4405C64 49.0814 63.9997 52.902 62.5837 55.8507C61.1699 58.7951 58.7951 61.1699 55.8507 62.5837C52.902 63.9997 49.0814 64 41.4405 64H22.5595C14.9186 64 11.098 63.9997 8.14927 62.5837C5.20491 61.1699 2.83012 58.7951 1.41626 55.8507C0.000325323 52.902 0 49.0814 0 41.4405V22.5595C0 14.9186 0.00032562 11.098 1.41626 8.14927C2.83012 5.20491 5.20491 2.83012 8.14927 1.41626C11.098 0.00032562 14.9186 0 22.5595 0H41.4405Z"
    fill="white"
  />
  <path
    fill-rule="evenodd"
    clip-rule="evenodd"
    d="M44.1323 0.00244141C50.023 0.0217928 53.2705 0.177297 55.8507 1.41628C58.7951 2.83014 61.1699 5.20492 62.5837 8.14929C63.9997 11.0981 64 14.9186 64 22.5595L63.9976 44.1323C63.9782 50.023 63.8227 53.2705 62.5837 55.8507L62.3083 56.3969C60.8716 59.0889 58.611 61.2583 55.8507 62.5838L55.5716 62.7124C53.0351 63.8336 49.8126 63.9789 44.1323 63.9976H19.8677C14.1874 63.9789 10.9649 63.8336 8.4284 62.7124L8.14927 62.5838C5.38901 61.2583 3.12843 59.0889 1.69175 56.3969L1.41626 55.8507C0.177282 53.2705 0.0217785 50.023 0.00242718 44.1323L0 22.5595C0 15.1574 0.000341767 11.3406 1.28762 8.42841L1.41626 8.14929C2.74172 5.38903 4.9111 3.12844 7.60316 1.69176L8.14927 1.41628C10.7295 0.177297 13.977 0.0217928 19.8677 0.00244141H44.1323ZM22.5595 5.65414C18.6507 5.65414 16.0418 5.65831 14.0328 5.81433C12.3287 5.94669 11.4205 6.16881 10.8313 6.40899L10.5971 6.51336C8.92304 7.31723 7.55215 8.63311 6.68083 10.2658L6.51335 10.5971C6.23466 11.1776 5.96559 12.0852 5.81432 14.0328C5.6583 16.0418 5.65413 18.6507 5.65413 22.5595V41.4405C5.65413 45.3493 5.6583 47.9582 5.81432 49.9672C5.96559 51.9149 6.23466 52.8224 6.51335 53.4029L6.68083 53.7342C7.55215 55.3669 8.92304 56.6828 10.5971 57.4867L10.8313 57.591C11.4205 57.8312 12.3287 58.0533 14.0328 58.1857C16.0418 58.3417 18.6507 58.3459 22.5595 58.3459H41.4405C45.3493 58.3459 47.9582 58.3417 49.9672 58.1857C51.9148 58.0344 52.8224 57.7654 53.4029 57.4867L53.7342 57.3192C55.3669 56.4479 56.6828 55.077 57.4867 53.4029L57.591 53.1687C57.8312 52.5795 58.0533 51.6713 58.1857 49.9672C58.3417 47.9582 58.3459 45.3493 58.3459 41.4405V22.5595C58.3459 18.6507 58.3417 16.0418 58.1857 14.0328C58.0533 12.3287 57.8312 11.4205 57.591 10.8313L57.4867 10.5971C56.6828 8.92305 55.3669 7.55217 53.7342 6.68084L53.4029 6.51336C52.8224 6.23467 51.9148 5.96561 49.9672 5.81433C47.9582 5.65831 45.3493 5.65414 41.4405 5.65414H22.5595Z"
    fill="#2B2B2B"
    fill-opacity="0.2"
  />
  <path
    fill-rule="evenodd"
    clip-rule="evenodd"
    d="M46.3598 13.1826C48.8462 13.3086 50.8234 15.3651 50.8234 17.8828C50.8231 20.4812 48.7166 22.5873 46.1183 22.5879L45.8561 22.5806L40.4933 27.9423C41.0814 29.1711 41.4119 30.5473 41.4119 32.0005C41.4119 33.4531 41.081 34.828 40.4933 36.0564L45.8561 41.418C45.9425 41.4133 46.0307 41.412 46.1183 41.4119L46.3598 41.418C48.8459 41.5441 50.823 43.6009 50.8234 46.1183C50.8228 48.7166 48.7166 50.8229 46.1183 50.8234C43.5197 50.8232 41.4125 48.7167 41.4119 46.1183C41.412 46.0309 41.4133 45.9423 41.418 45.8561L36.0564 40.4933C34.828 41.081 33.4531 41.4119 32.0005 41.4119C30.5473 41.4119 29.1711 41.0814 27.9423 40.4933L22.5806 45.8561C22.5854 45.9425 22.5879 46.0307 22.5879 46.1183C22.5874 48.7167 20.4813 50.8231 17.8828 50.8234C15.2842 50.8234 13.177 48.7168 13.1765 46.1183C13.1766 43.5194 15.2839 41.4119 17.8828 41.4119L18.1243 41.418C18.1303 41.4183 18.1365 41.4177 18.1425 41.418L23.5042 36.0552C22.9171 34.8274 22.588 33.4522 22.5879 32.0005C22.5879 30.5477 22.9164 29.1708 23.5042 27.9423L18.1425 22.5806C18.0565 22.5853 17.97 22.5879 17.8828 22.5879C15.284 22.5879 13.1767 20.4816 13.1765 17.8828C13.1765 15.2838 15.2838 13.1765 17.8828 13.1765L18.1243 13.1826C20.6109 13.3085 22.5879 15.365 22.5879 17.8828C22.5879 17.97 22.5853 18.0565 22.5806 18.1425L27.9423 23.5042C29.1708 22.9164 30.5477 22.5879 32.0005 22.5879C33.4522 22.588 34.8274 22.9171 36.0552 23.5042L41.418 18.1425C41.4133 18.0566 41.412 17.97 41.4119 17.8828C41.4119 15.284 43.5195 13.1768 46.1183 13.1765L46.3598 13.1826ZM32.0005 28.8622C30.2679 28.8622 28.8622 30.2679 28.8622 32.0005C28.8625 33.733 30.268 35.1377 32.0005 35.1377C33.7328 35.1374 35.1374 33.7328 35.1377 32.0005C35.1377 30.268 33.733 28.8625 32.0005 28.8622Z"
    fill="#2B2B2B"
  />
  <path
    fill-rule="evenodd"
    clip-rule="evenodd"
    d="M32.0005 13.1765C42.3963 13.1768 50.8234 21.6048 50.8234 32.0005C50.8231 42.3961 42.3961 50.8231 32.0005 50.8234C21.6048 50.8234 13.1768 42.3963 13.1765 32.0005C13.1765 21.6046 21.6046 13.1765 32.0005 13.1765ZM32.0005 16.9411C23.6838 16.9411 16.9411 23.6838 16.9411 32.0005C16.9413 40.3171 23.6839 47.0588 32.0005 47.0588C40.3169 47.0585 47.0585 40.3169 47.0588 32.0005C47.0588 23.6839 40.3171 16.9413 32.0005 16.9411Z"
    fill="#2B2B2B"
    fill-opacity="0.2"
  />
  <path
    fill-rule="evenodd"
    clip-rule="evenodd"
    d="M44.1323 0.00244141C50.023 0.0217928 53.2705 0.177297 55.8507 1.41628C58.7951 2.83014 61.1699 5.20492 62.5837 8.14929C63.9997 11.0981 64 14.9186 64 22.5595L63.9976 44.1323C63.9782 50.023 63.8227 53.2705 62.5837 55.8507L62.3083 56.3969C60.8716 59.0889 58.611 61.2583 55.8507 62.5838L55.5716 62.7124C53.0351 63.8336 49.8126 63.9789 44.1323 63.9976H19.8677C14.1874 63.9789 10.9649 63.8336 8.4284 62.7124L8.14927 62.5838C5.38901 61.2583 3.12843 59.0889 1.69175 56.3969L1.41626 55.8507C0.177282 53.2705 0.0217785 50.023 0.00242718 44.1323L0 22.5595C0 15.1574 0.000341767 11.3406 1.28762 8.42841L1.41626 8.14929C2.74172 5.38903 4.9111 3.12844 7.60316 1.69176L8.14927 1.41628C10.7295 0.177297 13.977 0.0217928 19.8677 0.00244141H44.1323ZM22.5595 1.88836C18.7094 1.88836 15.929 1.89069 13.7403 2.06069C11.8429 2.20809 10.511 2.47574 9.4199 2.9187L8.96723 3.11895C6.56993 4.27011 4.60704 6.1547 3.35922 8.49273L3.11893 8.96725C2.5545 10.1428 2.22909 11.5726 2.06068 13.7403C1.89068 15.929 1.88835 18.7094 1.88835 22.5595V41.4405C1.88835 45.2906 1.89068 48.071 2.06068 50.2597C2.22909 52.4275 2.5545 53.8572 3.11893 55.0328L3.35922 55.5073C4.60705 57.8453 6.56993 59.7299 8.96723 60.8811L9.4199 61.0813C10.511 61.5243 11.8429 61.7919 13.7403 61.9393C15.929 62.1093 18.7094 62.1117 22.5595 62.1117H41.4405C45.2906 62.1117 48.071 62.1093 50.2597 61.9393C52.4274 61.7709 53.8572 61.4455 55.0328 60.8811L55.5073 60.6408C57.8453 59.393 59.7299 57.4301 60.8811 55.0328L61.0813 54.5801C61.5243 53.4891 61.7919 52.1571 61.9393 50.2597C62.1093 48.071 62.1117 45.2906 62.1117 41.4405V22.5595C62.1117 18.7094 62.1093 15.929 61.9393 13.7403C61.7919 11.843 61.5243 10.511 61.0813 9.41992L60.8811 8.96725C59.7299 6.56995 57.8453 4.60706 55.5073 3.35924L55.0328 3.11895C53.8572 2.55452 52.4274 2.2291 50.2597 2.06069C48.071 1.89069 45.2906 1.88836 41.4405 1.88836H22.5595Z"
    fill="white"
  />
</svg>
