<svg width="80" height="80" viewBox="0 0 80 80" fill="none" xmlns="http://www.w3.org/2000/svg">
  <path
    d="M51.8007 0C61.3517 0 66.1274 0.000406654 69.8134 1.77033C73.4939 3.53766 76.4623 6.50614 78.2297 10.1866C79.9996 13.8725 80 18.6483 80 28.1993V51.8007C80 61.3517 79.9996 66.1274 78.2297 69.8134C76.4623 73.4939 73.4939 76.4623 69.8134 78.2297C66.1274 79.9996 61.3517 80 51.8007 80H28.1993C18.6483 80 13.8725 79.9996 10.1866 78.2297C6.50614 76.4623 3.53766 73.4939 1.77033 69.8134C0.000406654 66.1274 0 61.3517 0 51.8007V28.1993C0 18.6483 0.000407024 13.8725 1.77033 10.1866C3.53766 6.50614 6.50614 3.53766 10.1866 1.77033C13.8725 0.000407024 18.6483 0 28.1993 0H51.8007Z"
    fill="white"
  />
  <path
    fill-rule="evenodd"
    clip-rule="evenodd"
    d="M55.1654 0.00292969C62.5287 0.0271189 66.5881 0.221499 69.8134 1.77022C73.4939 3.53755 76.4623 6.50603 78.2297 10.1865C79.9996 13.8724 80 18.6481 80 28.1992L79.997 55.1652C79.9728 62.5286 79.7784 66.588 78.2297 69.8133L77.8853 70.4959C76.0895 73.861 73.2637 76.5727 69.8134 78.2296L69.4645 78.3904C66.2939 79.7919 62.2657 79.9735 55.1654 79.9969H24.8346C17.7343 79.9735 13.7061 79.7919 10.5355 78.3904L10.1866 78.2296C6.73626 76.5727 3.91053 73.861 2.11468 70.4959L1.77033 69.8133C0.221603 66.588 0.0272232 62.5286 0.00303398 55.1652L0 28.1992C0 18.9467 0.000427209 14.1756 1.60953 10.5354L1.77033 10.1865C3.42715 6.73616 6.13888 3.91043 9.50394 2.11458L10.1866 1.77022C13.4119 0.221499 17.4713 0.0271189 24.8346 0.00292969H55.1654ZM28.1993 7.06755C23.3134 7.06755 20.0523 7.07277 17.541 7.2678C15.4108 7.43324 14.2756 7.71089 13.5391 8.01112L13.2464 8.14158C11.1538 9.14642 9.44019 10.7913 8.35103 12.8321L8.14169 13.2463C7.79333 13.9719 7.45699 15.1063 7.2679 17.5409C7.07288 20.0522 7.06766 23.3133 7.06766 28.1992V51.8006C7.06766 56.6865 7.07288 59.9476 7.2679 62.4589C7.45699 64.8934 7.79333 66.0279 8.14169 66.7535L8.35103 67.1677C9.44019 69.2085 11.1538 70.8534 13.2464 71.8582L13.5391 71.9887C14.2756 72.2889 15.4108 72.5665 17.541 72.732C20.0523 72.927 23.3134 72.9322 28.1993 72.9322H51.8007C56.6866 72.9322 59.9477 72.927 62.459 72.732C64.8936 72.5429 66.028 72.2066 66.7536 71.8582L67.1678 71.6489C69.2086 70.5597 70.8535 68.8461 71.8583 66.7535L71.9888 66.4608C72.289 65.7243 72.5667 64.5891 72.7321 62.4589C72.9271 59.9476 72.9323 56.6865 72.9323 51.8006V28.1992C72.9323 23.3133 72.9271 20.0522 72.7321 17.5409C72.5667 15.4107 72.289 14.2755 71.9888 13.539L71.8583 13.2463C70.8535 11.1537 69.2086 9.44009 67.1678 8.35093L66.7536 8.14158C66.028 7.79322 64.8936 7.45689 62.459 7.2678C59.9477 7.07277 56.6866 7.06755 51.8007 7.06755H28.1993Z"
    fill="#2B2B2B"
    fill-opacity="0.2"
  />
  <path
    fill-rule="evenodd"
    clip-rule="evenodd"
    d="M57.9498 16.4783C61.0579 16.6359 63.5293 19.2064 63.5293 22.3536C63.529 25.6016 60.8958 28.2342 57.6479 28.235L57.3202 28.2259L50.6166 34.9279C51.3518 36.4639 51.765 38.1842 51.765 40.0007C51.7649 41.8164 51.3513 43.5351 50.6166 45.0705L57.3202 51.7726C57.4282 51.7667 57.5384 51.765 57.6479 51.765L57.9498 51.7726C61.0574 51.9302 63.5288 54.5012 63.5293 57.6479C63.5286 60.8958 60.8958 63.5287 57.6479 63.5293C54.3997 63.529 51.7656 60.8959 51.765 57.6479C51.765 57.5387 51.7667 57.428 51.7726 57.3202L45.0705 50.6166C43.5351 51.3513 41.8164 51.7649 40.0007 51.765C38.1842 51.765 36.4639 51.3518 34.9279 50.6166L28.2259 57.3202C28.2318 57.4282 28.235 57.5384 28.235 57.6479C28.2343 60.8959 25.6017 63.529 22.3536 63.5293C19.1053 63.5293 16.4713 60.8961 16.4707 57.6479C16.4708 54.3993 19.1049 51.765 22.3536 51.765L22.6555 51.7726C22.663 51.773 22.6707 51.7722 22.6782 51.7726L29.3803 45.069C28.6465 43.5343 28.2351 41.8154 28.235 40.0007C28.235 38.1847 28.6455 36.4636 29.3803 34.9279L22.6782 28.2259C22.5707 28.2317 22.4625 28.235 22.3536 28.235C19.105 28.235 16.471 25.6021 16.4707 22.3536C16.4707 19.1049 19.1049 16.4707 22.3536 16.4707L22.6555 16.4783C25.7637 16.6357 28.235 19.2063 28.235 22.3536C28.235 22.4625 28.2317 22.5707 28.2259 22.6782L34.9279 29.3803C36.4636 28.6455 38.1847 28.235 40.0007 28.235C41.8154 28.2351 43.5343 28.6465 45.069 29.3803L51.7726 22.6782C51.7667 22.5708 51.765 22.4625 51.765 22.3536C51.765 19.105 54.3994 16.471 57.6479 16.4707L57.9498 16.4783ZM40.0007 36.0778C37.8349 36.0778 36.0778 37.8349 36.0778 40.0007C36.0781 42.1663 37.8351 43.9222 40.0007 43.9222C42.1661 43.9218 43.9218 42.1661 43.9222 40.0007C43.9222 37.8351 42.1663 36.0781 40.0007 36.0778Z"
    fill="#2B2B2B"
  />
  <path
    fill-rule="evenodd"
    clip-rule="evenodd"
    d="M40.0007 16.4707C52.9954 16.471 63.5293 27.006 63.5293 40.0007C63.5289 52.9952 52.9952 63.5289 40.0007 63.5293C27.006 63.5293 16.471 52.9954 16.4707 40.0007C16.4707 27.0058 27.0058 16.4707 40.0007 16.4707ZM40.0007 21.1764C29.6048 21.1764 21.1764 29.6048 21.1764 40.0007C21.1767 50.3964 29.605 58.8236 40.0007 58.8236C50.3962 58.8232 58.8232 50.3962 58.8236 40.0007C58.8236 29.605 50.3964 21.1767 40.0007 21.1764Z"
    fill="#2B2B2B"
    fill-opacity="0.2"
  />
  <path
    fill-rule="evenodd"
    clip-rule="evenodd"
    d="M55.1654 0.00292969C62.5287 0.0271189 66.5881 0.221499 69.8134 1.77022C73.4939 3.53755 76.4623 6.50603 78.2297 10.1865C79.9996 13.8724 80 18.6481 80 28.1992L79.997 55.1652C79.9728 62.5286 79.7784 66.588 78.2297 69.8133L77.8853 70.4959C76.0895 73.861 73.2637 76.5727 69.8134 78.2296L69.4645 78.3904C66.2939 79.7919 62.2657 79.9735 55.1654 79.9969H24.8346C17.7343 79.9735 13.7061 79.7919 10.5355 78.3904L10.1866 78.2296C6.73626 76.5727 3.91053 73.861 2.11468 70.4959L1.77033 69.8133C0.221603 66.588 0.0272232 62.5286 0.00303398 55.1652L0 28.1992C0 18.9467 0.000427209 14.1756 1.60953 10.5354L1.77033 10.1865C3.42715 6.73616 6.13888 3.91043 9.50394 2.11458L10.1866 1.77022C13.4119 0.221499 17.4713 0.0271189 24.8346 0.00292969H55.1654ZM28.1993 2.36033C23.3868 2.36033 19.9113 2.36325 17.1754 2.57575C14.8037 2.76 13.1387 3.09455 11.7749 3.64826L11.209 3.89856C8.21241 5.33752 5.75881 7.69326 4.19903 10.6158L3.89866 11.2089C3.19313 12.6784 2.78636 14.4656 2.57585 17.1753C2.36335 19.9112 2.36044 23.3867 2.36044 28.1992V51.8006C2.36044 56.6131 2.36335 60.0886 2.57585 62.8245C2.78636 65.5342 3.19313 67.3214 3.89866 68.7909L4.19903 69.384C5.75881 72.3065 8.21242 74.6623 11.209 76.1012L11.7749 76.3515C13.1387 76.9052 14.8037 77.2398 17.1754 77.424C19.9113 77.6365 23.3868 77.6395 28.1993 77.6395H51.8007C56.6132 77.6395 60.0887 77.6365 62.8246 77.424C65.5343 77.2135 67.3215 76.8068 68.791 76.1012L69.3841 75.8009C72.3066 74.2411 74.6624 71.7875 76.1013 68.7909L76.3516 68.225C76.9053 66.8612 77.2399 65.1962 77.4241 62.8245C77.6366 60.0886 77.6396 56.6131 77.6396 51.8006V28.1992C77.6396 23.3867 77.6366 19.9112 77.4241 17.1753C77.2399 14.8036 76.9053 13.1386 76.3516 11.7748L76.1013 11.2089C74.6624 8.21231 72.3066 5.7587 69.3841 4.19892L68.791 3.89856C67.3215 3.19302 65.5343 2.78625 62.8246 2.57575C60.0887 2.36325 56.6132 2.36033 51.8007 2.36033H28.1993Z"
    fill="white"
  />
</svg>
